# xmcd
#
# Track frame offsets:
#	150
#	17916
#	33626
#	46938
#	66364
#	87988
#	100590
#	119001
#	135529
#	152708
#	168099
#
# Disc length: 2421 seconds
#
# Revision: 1
# Processed by: cddbd v1.4PL0 Copyright (c) Steve Scherf et al.
# Submitted via: audiograbber 1.80.04
#
DISCID=8d09730b
DTITLE=Mr. Wilson and the Menace - Every Night About This Time
DYEAR=2001
DGENRE=Blues
TTITLE0=Every Night About This Time
TTITLE1=Hey Brother
TTITLE2=Shake It
TTITLE3=I Want to Know
TTITLE4=Richest One, The
TTITLE5=Pickin' the Blues
TTITLE6=Gimme Back My Wig
TTITLE7=So Glad You're Mine
TTITLE8=Crosscut Saw
TTITLE9=All the Love in This Lovin'
TTITLE10=Roll Your Money Maker
EXTD=
EXTT0=
EXTT1=
EXTT2=
EXTT3=
EXTT4=
EXTT5=
EXTT6=
EXTT7=
EXTT8=
EXTT9=
EXTT10=
PLAYORDER=
